<?xml version="1.0" standalone="no"?>
<!DOCTYPE svg PUBLIC "-//W3C//DTD SVG 20010904//EN"
 "http://www.w3.org/TR/2001/REC-SVG-20010904/DTD/svg10.dtd">
<svg version="1.0" xmlns="http://www.w3.org/2000/svg"
 width="87.000000pt" height="87.000000pt" viewBox="0 0 87.000000 87.000000"
 preserveAspectRatio="xMidYMid meet">
<metadata>
Created by potrace 1.16, written by Peter Selinger 2001-2019
</metadata>
<g transform="translate(0.000000,87.000000) scale(0.100000,-0.100000)"
fill="#000000" stroke="none">
<path d="M20 850 c-18 -18 -20 -33 -20 -185 0 -152 2 -167 20 -185 18 -18 33
-20 185 -20 219 0 205 -14 205 205 0 152 -2 167 -20 185 -18 18 -33 20 -185
20 -152 0 -167 -2 -185 -20z"/>
<path d="M480 850 c-18 -18 -20 -33 -20 -185 0 -219 -14 -205 205 -205 219 0
205 -14 205 205 0 152 -2 167 -20 185 -18 18 -33 20 -185 20 -152 0 -167 -2
-185 -20z m229 -115 c32 -16 41 -33 41 -76 0 -55 -64 -92 -121 -69 -34 15 -49
37 -49 75 0 70 64 104 129 70z"/>
<path d="M20 390 c-18 -18 -20 -33 -20 -185 0 -219 -14 -205 205 -205 219 0
205 -14 205 205 0 219 14 205 -205 205 -152 0 -167 -2 -185 -20z m250 -137
c45 -58 7 -122 -78 -131 l-52 -5 0 80 c0 44 2 82 4 84 2 2 27 2 55 1 40 -3 55
-9 71 -29z"/>
<path d="M480 390 c-18 -18 -20 -33 -20 -185 0 -152 2 -167 20 -185 18 -18 33
-20 185 -20 219 0 205 -14 205 205 0 219 14 205 -205 205 -152 0 -167 -2 -185
-20z"/>
</g>
</svg>
