<?xml version="1.0" standalone="no"?>
<!DOCTYPE svg PUBLIC "-//W3C//DTD SVG 20010904//EN"
 "http://www.w3.org/TR/2001/REC-SVG-20010904/DTD/svg10.dtd">
<svg version="1.0" xmlns="http://www.w3.org/2000/svg"
 width="2200.000000pt" height="1467.000000pt" viewBox="0 0 2200.000000 1467.000000"
 preserveAspectRatio="xMidYMid meet">
<metadata>
Created by potrace 1.16, written by Peter Selinger 2001-2019
</metadata>
<g transform="translate(0.000000,1467.000000) scale(0.100000,-0.100000)"
fill="#000000" stroke="none">
<path d="M15300 14655 c0 -8 -9 -19 -20 -25 -23 -12 -26 -35 -7 -47 6 -4 32
-9 57 -10 25 -2 67 -6 93 -9 40 -5 52 -3 71 15 l22 21 37 -20 c20 -11 44 -20
52 -20 9 0 15 -9 15 -25 0 -19 7 -26 38 -34 24 -7 38 -7 40 -1 2 6 12 10 22
10 11 0 24 12 32 30 7 16 19 29 27 27 8 -1 16 4 18 11 3 7 -3 12 -14 12 -31 0
-73 24 -73 41 0 9 10 20 23 24 l22 8 -24 4 c-13 3 -27 1 -32 -4 -5 -5 -46 -5
-91 -1 -46 3 -134 7 -195 7 -93 1 -113 -2 -113 -14z"/>
<path d="M15766 14644 c-4 -15 -6 -27 -4 -28 2 0 13 -7 25 -13 13 -7 27 -13
33 -13 17 0 11 38 -7 49 -10 6 -13 11 -7 11 6 0 17 -7 24 -15 7 -8 23 -15 36
-15 18 0 24 -5 24 -23 0 -20 8 -24 88 -41 48 -10 110 -25 139 -33 48 -14 55
-14 88 1 40 19 44 35 15 54 -12 7 -18 17 -15 22 8 12 -26 20 -97 23 -64 3 -77
10 -58 32 11 13 -4 15 -133 15 l-145 0 -6 -26z"/>
<path d="M17532 14657 c-43 -8 -53 -13 -49 -27 2 -9 0 -25 -5 -34 -9 -16 -5
-17 46 -11 39 5 56 4 56 -4 0 -6 -4 -11 -9 -11 -17 0 -86 -74 -83 -89 2 -7 -2
-18 -10 -23 -8 -5 9 -6 42 -2 30 4 98 8 150 10 148 5 173 11 151 38 -7 8 -10
20 -6 26 9 15 132 10 145 -5 12 -15 58 -17 82 -4 10 5 14 16 11 29 -4 16 0 20
20 20 36 0 43 18 10 25 -84 17 -103 26 -109 50 -6 22 -11 25 -56 25 -46 0 -49
-2 -43 -21 6 -17 4 -20 -12 -16 -10 3 -37 9 -60 12 -24 4 -43 11 -43 16 0 12
-160 9 -228 -4z"/>
<path d="M17155 14573 c-27 -2 -54 -8 -59 -14 -13 -12 27 -49 53 -49 11 0 21
-4 23 -10 6 -16 248 -44 248 -28 0 5 -7 11 -15 14 -20 8 -19 24 1 24 14 0 14
3 4 15 -7 8 -19 15 -27 15 -7 0 -24 7 -37 15 -17 12 -30 13 -49 6 -19 -8 -28
-6 -37 5 -7 7 -22 13 -34 12 -11 -1 -43 -3 -71 -5z"/>
<path d="M14887 14337 c-4 -15 -8 -104 -8 -197 0 -149 -2 -171 -17 -180 -9 -5
-12 -10 -7 -10 11 0 11 -127 0 -383 -4 -76 -3 -146 1 -155 10 -23 5 -51 -13
-79 -18 -27 -30 -29 -36 -5 -9 34 -7 -21 2 -60 8 -32 6 -38 -10 -43 -21 -7
-25 -20 -9 -30 12 -7 14 -45 3 -45 -5 0 -9 -69 -9 -152 -1 -84 -2 -170 -3
-190 -1 -21 0 -43 1 -49 2 -6 -3 -14 -9 -16 -9 -3 -13 9 -13 43 0 26 -3 44 -7
41 -7 -8 -6 -129 2 -166 2 -14 0 -30 -5 -36 -6 -7 -11 -24 -12 -38 -1 -14 -5
-24 -8 -22 -3 1 -16 -1 -28 -6 -21 -8 -23 -14 -18 -48 6 -42 -14 -62 -39 -41
-15 12 -45 -12 -45 -36 0 -8 -5 -14 -10 -14 -6 0 -9 -15 -8 -32 2 -22 -1 -32
-9 -30 -14 2 -16 -8 -7 -33 5 -13 8 -14 15 -3 6 9 9 7 9 -9 0 -16 -6 -21 -22
-21 -13 1 -29 6 -36 12 -21 16 -32 -12 -32 -82 0 -35 -4 -61 -9 -58 -11 7 -20
-67 -22 -191 -1 -57 -5 -103 -10 -103 -5 0 -9 8 -9 18 0 10 -7 19 -15 19 -8 0
-15 -9 -15 -19 0 -10 -7 -18 -15 -18 -13 0 -15 -39 -15 -290 0 -251 -2 -290
-15 -290 -12 0 -15 -13 -15 -60 l0 -60 -50 1 c-45 2 -50 4 -50 26 0 12 -4 23
-10 23 -5 0 -10 -11 -10 -25 l0 -25 -105 0 -105 0 0 -27 c0 -31 -26 -64 -46
-56 -18 7 -34 -36 -34 -94 0 -37 -3 -44 -16 -39 -9 3 -20 6 -25 6 -5 0 -9 18
-9 41 0 25 -4 38 -11 34 -10 -7 -49 30 -49 47 0 5 -4 7 -10 3 -5 -3 -10 22
-12 62 l-3 67 -35 7 c-19 4 -37 4 -40 0 -3 -4 -21 -7 -40 -7 l-35 1 2 -62 c2
-86 -21 -83 -46 5 -6 23 -16 40 -21 37 -5 -3 -16 -28 -25 -55 -9 -28 -21 -50
-26 -50 -5 0 -9 -7 -9 -15 0 -10 -11 -15 -35 -15 -24 0 -37 -6 -45 -20 -8 -14
-21 -20 -45 -20 -34 0 -35 -1 -35 -37 l0 -38 -170 3 c-99 2 -170 7 -170 12 0
6 -5 10 -11 10 -5 0 -8 -4 -5 -9 3 -5 -27 -11 -67 -13 -39 -2 -73 -1 -75 4 -2
4 -22 7 -45 7 l-42 -2 35 -7 c25 -6 13 -7 -40 -5 -100 4 -138 13 -151 36 -7
13 -17 18 -34 15 -31 -6 -33 -2 -25 44 4 22 3 40 -1 40 -5 0 -9 11 -9 25 0 18
-5 25 -20 25 -20 0 -20 1 -26 -95 -4 -74 -3 -72 -15 -52 -9 16 -23 18 -107 17
-250 -4 -933 3 -905 10 17 4 246 7 507 6 262 -1 476 2 476 7 0 4 -18 7 -40 7
-22 0 -40 5 -40 10 0 6 20 10 44 10 39 0 45 -3 48 -22 3 -17 5 -13 9 13 l5 36
-91 0 c-65 0 -79 -2 -50 -7 22 -4 30 -8 18 -9 -13 0 -23 -5 -23 -11 0 -6 -25
-10 -57 -9 -42 0 -52 3 -38 9 19 8 19 9 -2 9 -13 1 -23 -5 -23 -12 0 -11 -45
-13 -237 -11 -151 2 -239 7 -241 14 -2 5 -21 10 -43 10 -29 0 -39 -4 -39 -16
0 -13 -7 -15 -37 -9 -21 3 -42 11 -47 16 -6 5 -26 10 -45 11 -20 1 11 5 69 8
87 6 74 7 -77 6 l-182 -1 -3 25 c-4 33 -42 35 -46 3 -2 -13 -6 -23 -10 -24 -4
0 -18 -2 -32 -4 -74 -11 -1165 -17 -3615 -19 -2067 -2 -2741 -6 -2775 -15 -25
-6 -130 -14 -235 -17 -104 -3 -201 -6 -215 -8 -14 -2 -40 -4 -58 -4 -21 -1
-31 -6 -27 -13 5 -7 -4 -9 -27 -5 -101 16 -370 19 -1393 17 -621 -1 -1534 -1
-2027 -1 l-898 0 0 -5505 0 -5505 11000 0 11000 0 0 1960 c0 1947 0 1960 -20
1980 -11 11 -20 23 -20 26 0 4 -15 23 -32 44 -48 54 -68 80 -68 86 0 3 32 3
70 1 l70 -3 0 1326 0 1327 -61 7 c-34 3 -110 6 -169 6 -133 0 -260 10 -260 21
0 5 6 7 13 4 27 -9 297 -13 292 -4 -4 5 -2 9 4 9 5 0 11 -4 13 -9 3 -9 55 -14
131 -12 l37 1 -2 183 c-2 131 -3 151 -5 70 -4 -113 -4 -113 -28 -113 -21 0
-25 5 -25 31 0 16 4 28 9 25 9 -6 24 35 16 43 -3 2 -5 -1 -5 -7 0 -7 -4 -12
-9 -12 -5 0 -10 45 -10 100 0 104 -12 150 -35 131 -7 -6 -16 -8 -19 -4 -14 14
-6 20 23 17 l30 -4 -6 88 c-6 89 -14 123 -14 61 0 -25 -3 -30 -9 -19 -6 8 -8
17 -5 21 2 4 -3 12 -12 19 -27 23 -38 -4 -39 -97 0 -49 -4 -93 -8 -99 -4 -7
-7 -23 -6 -35 2 -98 -3 -199 -11 -199 -10 0 -21 35 -18 60 0 8 0 52 0 98 -2
65 -5 82 -17 82 -8 0 -15 5 -15 10 0 6 7 10 16 10 14 0 15 13 10 96 -2 53 -7
99 -10 101 -10 11 -36 -20 -31 -36 8 -27 -11 -45 -49 -44 l-36 1 0 -99 c0 -60
-4 -99 -10 -99 -7 0 -9 -39 -6 -107 3 -82 2 -91 -3 -38 -4 39 -8 55 -9 36 -1
-19 -4 -32 -7 -30 -3 4 -14 301 -15 422 0 4 -7 7 -15 7 -8 0 -15 7 -15 15 0 8
-5 15 -11 15 -6 0 -8 9 -4 20 6 18 2 20 -41 20 -36 0 -44 -3 -37 -12 6 -8 7
-39 2 -83 -4 -38 -8 -131 -9 -205 0 -74 -5 -142 -10 -150 -5 -8 -10 -13 -11
-10 -9 34 -14 434 -6 447 10 16 -13 21 -63 14 -33 -5 -44 -11 -41 -21 10 -37
13 -83 6 -118 -7 -33 -9 -35 -14 -13 -5 20 -9 16 -21 -30 l-15 -54 -5 70 c-5
76 3 103 26 84 9 -7 14 -8 14 -1 0 6 3 18 7 28 5 14 2 16 -18 12 -13 -3 -35
-2 -49 2 -15 5 -18 8 -8 9 33 2 8 81 -27 81 -43 0 -85 -59 -52 -74 10 -5 10
-7 0 -12 -9 -4 -13 -33 -14 -87 -1 -85 -3 -85 -14 -4 -6 46 -25 67 -25 27 0
-36 -18 -21 -25 21 -10 60 -19 39 -17 -44 2 -66 -6 -100 -22 -98 -20 3 -26 0
-21 -9 4 -6 14 -9 23 -8 12 2 18 -6 20 -29 3 -28 1 -31 -19 -26 -12 3 -24 14
-26 24 -3 11 -9 16 -14 13 -5 -3 -23 9 -40 27 -26 26 -36 30 -67 27 -20 -3
-49 -2 -63 3 -23 6 -26 4 -22 -12 3 -10 12 -19 19 -19 8 0 13 -8 12 -17 -1
-10 0 -53 0 -97 l2 -79 53 6 c34 4 43 3 27 -3 -18 -6 0 -8 59 -9 71 -1 82 -3
77 -17 -3 -9 -6 -40 -6 -70 0 -34 -4 -53 -10 -49 -5 3 -10 15 -10 26 0 10 -7
19 -15 19 -10 0 -15 10 -15 31 0 34 -22 36 -29 3 -8 -44 -41 -33 -41 14 0 13
-6 22 -15 22 -10 0 -15 -10 -15 -34 0 -30 -3 -34 -25 -32 -21 1 -25 6 -25 34
0 26 -4 32 -21 32 -16 0 -20 -5 -17 -27 3 -24 -1 -28 -24 -31 -24 -3 -28 0
-28 22 0 32 -10 56 -22 56 -6 0 -19 11 -30 25 -11 14 -26 25 -34 25 -13 0 -18
12 -15 32 0 4 -10 10 -24 14 -14 3 -25 10 -25 15 0 5 -8 9 -17 9 -12 0 -14 3
-7 10 7 7 8 30 2 68 -12 73 -12 69 -6 122 3 25 3 37 1 27 -3 -10 -10 -16 -18
-13 -16 6 -26 -35 -13 -57 5 -10 4 -18 -2 -22 -6 -4 -8 -15 -5 -26 4 -10 2
-27 -4 -36 -11 -20 -13 -10 -14 90 0 39 -4 47 -19 47 -22 0 -25 38 -3 46 8 4
15 12 15 19 0 19 -30 27 -37 9 -9 -24 3 -115 16 -124 9 -5 8 -9 -3 -13 -11 -5
-15 -14 -11 -29 3 -13 2 -43 -3 -68 l-9 -45 -6 55 c-4 30 -6 62 -6 70 5 40 -2
91 -11 85 -6 -3 -10 5 -10 19 0 13 5 26 12 28 17 6 2 38 -18 38 -13 0 -15 -6
-10 -30 3 -20 2 -29 -4 -25 -6 4 -13 -1 -16 -9 -3 -9 -15 -16 -25 -16 -12 0
-16 5 -13 15 4 9 0 15 -10 15 -9 0 -16 -7 -16 -15 0 -11 -11 -15 -40 -15 -22
0 -40 5 -40 10 0 6 10 10 23 10 12 0 17 3 11 8 -6 4 -10 17 -9 29 1 13 -5 23
-17 26 -15 4 -18 -1 -18 -31 0 -27 -3 -33 -9 -22 -6 8 -7 18 -4 23 3 5 -3 7
-13 5 -11 -2 -18 -11 -18 -20 1 -10 -5 -16 -17 -15 -14 1 -17 6 -13 20 10 31
12 67 3 62 -12 -8 -17 17 -9 45 4 14 4 34 -1 45 l-8 20 -1 -20 c-1 -11 -1 -31
0 -44 1 -18 -2 -22 -14 -18 -10 4 -16 1 -16 -8 0 -8 -4 -15 -10 -15 -5 0 -10
5 -10 11 0 6 -7 3 -16 -5 -20 -21 -34 -20 -34 0 0 11 -6 15 -20 11 -11 -3 -18
-2 -16 1 2 4 -32 8 -77 10 -59 2 -87 7 -100 20 -17 16 -19 16 -28 -1 -7 -12
-23 -17 -59 -17 -27 0 -51 4 -54 9 -3 4 -16 6 -29 4 -18 -4 -25 2 -34 24 -9
22 -11 -2 -11 -124 -1 -113 2 -153 11 -153 9 0 9 -2 0 -8 -8 -5 -13 -141 -18
-487 -5 -345 -10 -482 -18 -487 -9 -6 -9 -8 1 -8 6 0 12 -4 12 -10 0 -5 -6
-10 -14 -10 -18 0 -26 32 -14 54 6 10 5 16 -1 16 -7 0 -7 8 -1 25 6 16 6 25 0
25 -6 0 -10 7 -10 16 0 8 5 12 10 9 6 -3 10 -1 10 4 0 6 -3 11 -7 11 -5 0 -7
83 -5 184 l2 183 -67 6 c-38 4 -120 7 -183 7 -63 0 -120 4 -125 8 -12 8 -14
32 -2 32 4 0 55 -1 115 -1 l107 -2 -95 -8 c-52 -5 -102 -10 -110 -13 -26 -7
172 -6 245 2 70 7 70 7 25 13 l-45 6 58 1 c32 1 57 -2 57 -8 0 -18 17 -11 18
8 3 51 2 275 -1 278 -2 3 -84 7 -183 10 -190 6 -209 8 -199 24 3 5 1 10 -4 10
-6 0 -11 -6 -12 -12 0 -7 -2 -41 -4 -75 l-4 -63 32 0 c105 -2 344 -12 355 -15
6 -3 12 -11 12 -20 0 -12 -17 -15 -98 -15 -168 0 -284 11 -278 27 4 9 -4 13
-24 13 -20 0 -30 -5 -30 -15 0 -11 -12 -15 -47 -15 -35 0 -44 3 -33 10 8 5 27
10 43 10 15 0 27 4 27 10 0 5 -39 11 -87 13 -85 4 -84 4 13 3 l100 -1 0 102
c0 58 4 103 10 103 5 0 10 -6 10 -13 4 -37 -17 -33 252 -40 l152 -4 0 58 0 58
-52 5 c-29 3 -115 8 -190 12 l-138 6 1 27 c2 23 2 24 6 4 2 -13 8 -23 13 -23
5 0 7 7 3 16 -5 12 0 15 23 12 17 -2 28 -8 26 -15 -1 -9 13 -12 50 -11 51 1
51 2 11 5 -24 2 -43 9 -43 14 0 16 200 5 212 -12 7 -11 11 -11 15 -1 2 6 18
12 34 12 l29 0 0 71 c0 60 -2 70 -14 60 -13 -11 -43 -11 -321 3 -33 2 -41 6
-43 24 -3 20 1 22 41 22 25 0 47 -4 49 -9 2 -4 25 -11 52 -13 30 -4 43 -2 35
3 -9 5 28 9 94 9 l107 0 -1 73 c0 39 -3 66 -6 60 -3 -10 -41 -13 -146 -12 -93
1 -130 4 -107 9 21 5 4 6 -42 3 -75 -6 -78 -5 -78 16 0 20 4 21 113 20 61 0
147 -4 189 -7 l76 -7 4 46 c2 25 2 53 0 61 -4 19 -81 28 -253 28 l-129 0 0 24
0 25 189 -6 189 -5 4 64 3 65 -190 6 c-114 4 -191 11 -193 17 -4 12 -54 13
-67 2 -6 -4 -82 -5 -170 -2 -138 6 -148 7 -75 11 47 2 120 2 163 1 64 -3 77
-1 77 12 0 18 -31 20 -120 6 -30 -4 -62 -4 -70 1 -17 10 10 13 73 10 24 -2 37
2 37 10 0 8 -16 10 -57 6 -43 -4 -52 -3 -33 4 14 6 58 7 102 3 61 -5 78 -10
78 -22 0 -34 18 5 22 46 4 43 0 50 -18 32 -7 -7 -25 -8 -55 -1 -24 5 -101 8
-171 5 -71 -2 -128 0 -129 4 0 4 -2 16 -5 27 -2 11 -4 73 -5 137 -1 77 -5 116
-11 112 -6 -4 -9 -38 -6 -85 3 -58 1 -79 -7 -79 -9 0 -12 29 -11 109 1 60 5
113 9 117 4 4 7 -6 7 -22 1 -27 2 -28 15 -11 7 11 11 26 8 35 -4 10 -2 13 6 8
6 -4 93 -7 192 -6 123 0 179 -3 174 -10 -3 -5 -1 -10 4 -10 6 0 11 5 11 10 0
23 19 8 23 -17 4 -27 4 -27 5 -3 l2 25 202 -2 c183 -3 201 -1 183 12 -11 9
-27 21 -35 28 -8 7 -44 35 -80 62 -36 27 -66 53 -68 57 -2 4 -28 8 -58 8 -30
0 -54 4 -54 8 0 12 108 6 123 -6 7 -5 37 -29 67 -53 31 -24 70 -55 89 -69 67
-51 62 -20 60 -399 0 -190 -1 -351 0 -357 1 -8 12 -9 38 -3 45 10 56 1 47 -35
-4 -17 -13 -26 -26 -26 -17 0 -18 3 -8 15 11 13 8 15 -18 15 -22 0 -31 -5 -36
-22 -8 -32 -8 -35 7 -36 23 -2 291 -11 370 -13 74 -1 102 -13 55 -22 -22 -4
-21 -4 2 -5 14 -1 36 7 50 18 37 28 14 45 -55 42 -30 -1 -55 1 -54 5 4 22 -2
43 -12 43 -6 0 -9 -7 -5 -15 4 -10 -1 -15 -15 -15 -11 0 -18 -4 -14 -9 13 -22
-16 -19 -54 6 -41 26 -56 63 -25 63 8 0 13 4 10 9 -10 15 136 19 160 5 19 -11
124 -18 124 -9 0 2 -4 15 -10 29 -5 14 -6 26 -1 26 4 0 6 12 4 28 -5 29 11 82
25 82 5 0 7 -13 4 -30 -2 -16 -1 -38 4 -47 6 -14 9 -8 14 22 8 54 2 68 -27 62
-13 -2 -26 0 -29 4 -7 11 23 42 34 35 4 -2 14 0 22 5 11 7 4 9 -24 7 -32 -2
-42 2 -62 27 -20 25 -26 28 -34 15 -5 -8 -10 -10 -10 -5 0 6 5 17 10 25 8 13
15 12 49 -7 50 -29 71 -29 71 -2 0 17 -3 19 -14 10 -10 -8 -19 -6 -37 11 -14
13 -30 23 -37 24 -7 1 -25 2 -42 3 -40 2 -38 19 3 23 24 2 31 7 29 21 -2 9 2
17 8 17 5 0 10 -8 10 -18 0 -15 8 -19 40 -20 l40 -2 -2 130 c-2 102 -6 130
-17 130 -8 0 -11 -7 -8 -20 3 -10 0 -21 -7 -24 -7 -3 -7 -5 2 -5 19 -1 14 -35
-8 -54 -20 -17 -20 -16 -20 73 0 53 -4 90 -10 90 -6 0 -10 -31 -10 -74 0 -40
-3 -102 -7 -137 -8 -60 -8 -56 -15 71 -3 74 -9 147 -13 161 -6 24 -5 26 19 22
22 -5 25 -2 20 21 -3 19 0 26 11 26 9 0 13 5 9 11 -3 6 -19 9 -35 5 -17 -3
-29 -1 -29 5 0 6 -5 7 -10 4 -7 -4 -9 2 -7 17 2 12 2 17 0 11 -3 -7 -9 -13
-14 -13 -5 0 -9 -12 -10 -27 l-1 -28 -13 30 c-12 25 -14 27 -15 9 0 -14 -8
-24 -22 -28 -23 -6 -23 -6 -3 -22 11 -8 27 -13 35 -11 13 3 14 -2 5 -41 -6
-29 -11 -38 -13 -24 -2 13 -8 19 -18 15 -17 -6 -19 8 -2 25 13 13 5 27 -11 17
-17 -10 -14 -68 2 -62 10 4 14 -12 15 -66 1 -39 0 -68 -3 -65 -4 3 -7 20 -7
37 -1 42 -14 48 -21 11 -6 -26 -9 -29 -29 -21 -13 4 -22 11 -20 15 1 3 2 22 2
41 0 28 4 35 20 35 11 0 20 -7 20 -15 0 -8 5 -15 10 -15 6 0 10 4 10 9 0 6 -4
13 -10 16 -5 3 -10 15 -10 26 0 12 -7 19 -19 19 -11 0 -23 5 -26 11 -4 6 -14
8 -22 5 -9 -4 -22 -1 -29 5 -7 6 -18 8 -24 4 -5 -3 -10 -1 -10 4 0 6 -4 11
-10 11 -5 0 -10 -12 -10 -27 0 -38 -14 -18 -17 24 -1 27 3 40 17 50 26 18 25
33 0 33 -17 0 -20 7 -20 43 0 31 3 38 10 27 8 -12 10 -10 10 8 0 13 -4 20 -10
17 -6 -4 -11 11 -12 37 -3 71 -3 77 -11 84 -4 4 -7 3 -7 -3 0 -6 -8 -9 -17 -7
-10 2 -35 5 -57 8 -21 2 -43 10 -47 18 -7 10 -9 9 -9 -4 0 -21 -1 -21 -37 -6
-29 11 -38 14 -62 16 -21 3 -6 14 37 29 32 11 39 11 49 -3 10 -13 17 -14 46
-4 46 17 74 39 62 48 -14 10 -19 79 -6 87 6 3 10 25 10 48 l-2 42 -6 -35 -7
-35 -8 34 c-6 23 -4 36 4 41 7 5 8 10 2 14 -5 3 -8 17 -7 31 2 14 0 27 -5 30
-4 3 -6 14 -3 25 4 13 0 20 -10 20 -8 0 -21 8 -28 17 -12 15 -12 16 7 11 12
-3 27 -2 34 2 15 10 4 30 -16 30 -9 0 -14 7 -12 18 3 11 12 16 26 15 20 -3 22
1 16 25 -4 15 -11 37 -15 50 -5 13 -5 22 1 22 11 0 13 42 4 89 -10 47 -24 27
-26 -37 l-2 -57 -3 52 c-2 29 -11 65 -18 80 -13 25 -13 28 0 31 8 2 15 8 15
14 0 7 -19 9 -50 6 -27 -3 -47 -1 -44 4 3 4 -10 8 -28 9 -18 0 -90 2 -161 5
l-128 4 5 -75 c3 -43 1 -75 -5 -75 -5 0 -9 7 -9 15 0 8 -4 15 -10 15 -5 0 -10
-5 -10 -11 0 -8 -5 -8 -15 1 -16 13 -17 11 -16 -35 l0 -30 -9 30 c-7 22 -6 33
6 46 15 17 15 73 0 97 -4 7 -2 12 3 12 6 0 11 5 11 12 0 6 -11 1 -26 -13 -22
-21 -23 -25 -9 -35 9 -7 14 -22 12 -35 -3 -19 -10 -24 -33 -24 -22 0 -28 4
-26 18 2 9 -3 17 -10 17 -8 1 -5 6 6 15 17 13 18 15 3 15 -14 0 -17 10 -17 50
l0 50 -42 1 -43 1 43 10 c24 5 42 15 42 23 0 9 -15 15 -42 18 l-43 4 41 1 42
2 6 78 c11 147 11 153 -4 162 -11 7 -4 10 23 10 23 0 36 4 32 10 -3 6 -17 7
-31 4 -19 -5 -24 -2 -25 12 -2 52 -16 73 -48 74 -11 0 -11 3 -1 15 16 20 6 19
-25 -1 -23 -15 -25 -15 -25 0 0 10 5 14 10 11 6 -3 10 -1 10 4 0 6 -5 11 -11
11 -8 0 -8 5 1 15 7 8 20 15 29 14 12 0 11 -2 -4 -9 -18 -8 -17 -9 7 -9 14 -1
28 5 31 12 2 7 20 12 42 12 53 0 56 21 5 35 -22 6 -38 15 -35 19 2 5 -4 11
-15 14 -12 3 -24 -3 -34 -17 -13 -21 -13 -22 14 -18 15 2 31 -1 34 -7 5 -7 -7
-11 -34 -11 -33 0 -43 4 -47 20 -3 12 -27 30 -60 45 -67 30 -83 31 -83 5 0
-13 -5 -18 -15 -14 -10 4 -15 0 -15 -10 0 -13 -9 -16 -40 -14 -22 2 -40 6 -40
10 0 10 -93 -3 -100 -13 -3 -4 -33 -11 -68 -15 -34 -3 -62 -11 -62 -15 0 -5
-6 -9 -14 -9 -18 0 -71 28 -71 37 0 5 -4 7 -8 5 -5 -1 -34 -5 -65 -7 -31 -3
-69 -7 -85 -11 -15 -3 -33 -2 -40 4 -6 5 -28 8 -47 6 -19 -1 -46 -1 -60 2 -23
4 -25 8 -22 54 5 62 22 66 22 5 0 -38 3 -45 20 -45 16 0 20 7 20 35 0 28 -3
33 -16 28 -11 -4 -15 -2 -12 7 2 7 13 15 25 16 19 3 20 0 15 -41 -3 -30 -1
-45 7 -45 13 0 14 38 4 158 -4 55 -10 82 -18 82 -7 0 -15 10 -18 22 -5 18 -8
19 -21 8 -9 -7 -16 -19 -16 -26 0 -8 -10 -14 -22 -14 -13 0 -18 3 -12 8 19 12
24 53 7 59 -11 5 -12 7 -2 14 8 4 13 28 14 58 0 47 -2 52 -27 60 -18 7 -28 17
-28 30 0 18 -4 20 -32 14 -40 -7 -47 -17 -49 -63 0 -19 -2 -46 -3 -60 -1 -14
-3 -62 -4 -108 -2 -72 -4 -83 -19 -80 -24 4 -55 102 -54 171 l1 57 -50 0 c-38
0 -52 4 -57 17 -4 9 -1 19 5 21 16 5 15 23 0 19 -9 -1 -12 9 -10 33 2 22 -3
39 -12 45 -8 6 -16 24 -18 40 -3 30 -4 30 -73 33 -38 2 -134 1 -212 -3 l-141
-7 -31 -43 c-26 -36 -31 -53 -31 -100 0 -55 0 -56 -27 -53 l-28 3 0 110 0 110
55 2 c30 1 73 2 95 2 28 1 36 4 25 10 -8 6 -27 7 -42 4 -19 -4 -28 -1 -28 7 0
16 142 8 148 -9 5 -15 59 -14 66 2 5 10 7 10 12 0 8 -18 31 -16 38 2 3 8 11
15 18 14 10 0 10 -2 1 -6 -27 -10 -11 -23 28 -23 33 0 40 3 35 16 -3 8 -2 12
4 9 9 -5 14 24 8 41 -5 12 -83 11 -90 0 -5 -8 -10 -8 -19 1 -8 8 2 14 41 22
28 6 56 8 62 5 7 -4 8 -2 4 4 -4 7 -2 12 4 12 7 0 14 -8 17 -19 4 -14 18 -20
65 -25 33 -3 64 -3 69 0 5 3 9 -2 9 -10 0 -9 5 -16 10 -16 6 0 10 7 10 15 0 8
5 15 10 15 6 0 10 -4 10 -10 0 -5 5 -10 11 -10 7 0 9 10 7 25 -5 22 -2 25 24
25 16 0 45 7 65 15 19 8 39 15 44 15 5 0 9 -7 9 -15 0 -9 -9 -15 -25 -15 -14
0 -34 -9 -45 -20 -11 -11 -29 -20 -40 -20 -11 0 -20 -6 -20 -13 0 -8 14 -11
45 -9 25 2 43 8 40 12 -7 11 88 19 100 8 5 -4 -3 -8 -18 -8 -15 0 -27 -4 -27
-9 0 -17 63 -31 134 -30 39 1 61 4 49 6 -13 2 -23 11 -23 19 0 18 8 18 26 -1
17 -16 60 -20 68 -6 3 4 19 11 36 14 36 8 39 24 5 33 -16 4 -30 0 -40 -10 -26
-25 -42 -19 -94 33 -37 38 -54 48 -70 44 -12 -3 -24 -9 -27 -14 -10 -17 -25
-9 -35 20 -10 29 -12 30 -87 32 -42 1 -95 1 -116 0 -22 0 -43 5 -48 11 -6 10
-10 10 -19 1 -10 -10 -19 -8 -43 10 -60 45 -75 47 -415 45 -258 -1 -326 -4
-337 -15 -11 -12 -18 -11 -45 2 -22 12 -34 14 -42 6 -7 -7 -63 -11 -147 -11
-88 0 -156 -5 -193 -15 -31 -8 -70 -16 -87 -17 -25 -2 -29 -6 -25 -23 5 -16 3
-15 -10 5 -15 23 -15 23 -10 3 4 -13 2 -23 -3 -23 -14 0 -18 40 -17 188 l0
132 -57 0 -58 0 0 69 c0 46 -4 72 -14 80 -11 10 -15 4 -18 -29 -2 -23 0 -44 4
-46 4 -3 8 -21 8 -40 0 -32 -2 -35 -27 -34 -16 1 -43 2 -60 1 -29 -1 -33 -4
-33 -30 0 -16 -6 -32 -12 -35 -10 -5 -10 -7 0 -12 6 -3 12 -12 12 -19 0 -8 -6
-18 -12 -22 -8 -5 -13 -30 -13 -63 0 -44 -3 -54 -15 -52 -8 2 -61 1 -117 -3
-103 -7 -103 -7 -103 -33 0 -51 -9 -55 -114 -48 -88 6 -96 5 -96 -11 -1 -17
-1 -17 -14 -1 -7 10 -16 15 -19 11 -4 -3 -14 0 -22 7 -13 11 -16 11 -13 0 2
-7 -3 -15 -9 -17 -7 -3 -13 0 -13 6 0 19 -20 12 -21 -6 0 -11 -3 -13 -6 -5 -2
6 -11 12 -18 12 -7 0 -16 -6 -18 -12 -4 -10 -8 -10 -15 1 -5 7 -15 10 -21 7
-6 -4 -11 -2 -11 5 0 7 -9 4 -23 -9 -22 -20 -23 -20 -46 -2 -14 10 -30 16 -36
14 -6 -3 -17 5 -23 18 -10 22 -11 22 -11 2 -1 -22 -31 -29 -43 -10 -4 6 -8
-36 -8 -94 -8 -1719 -13 -2204 -19 -2245 -5 -27 -9 -93 -10 -145 -2 -52 -4
-96 -6 -98 -7 -8 8 2844 15 2852 13 13 0 37 -25 46 l-23 9 2 261 c3 200 6 264
16 270 7 4 11 14 8 21 -3 8 -6 18 -6 24 0 5 -10 13 -22 17 -14 5 -20 14 -17
22 3 8 2 16 -3 18 -5 2 -10 56 -11 121 -1 104 -3 119 -20 128 -14 7 -19 21
-19 50 0 50 -16 84 -34 70 -6 -5 -31 -10 -54 -9 -35 0 -42 4 -42 20 0 20 36
39 58 31 6 -3 12 2 12 11 0 19 -4 20 -30 4 -10 -7 -23 -9 -27 -5 -4 5 -1 12 6
16 21 14 4 51 -24 51 -18 0 -23 4 -19 15 4 9 0 15 -10 15 -9 0 -16 -7 -16 -15
0 -8 -4 -15 -10 -15 -12 0 -13 37 -2 44 5 3 9 19 10 36 1 26 -2 29 -14 19 -11
-9 -14 -7 -14 15 0 34 -17 33 -33 -1 -11 -27 -12 -25 -15 27 -2 30 -7 59 -13
64 -5 6 -9 36 -9 69 0 36 -4 56 -10 52 -5 -3 -10 -1 -10 4 0 6 4 11 10 11 12
0 8 43 -5 52 -6 5 -5 8 3 8 10 0 13 33 11 149 0 83 3 155 7 162 4 7 2 15 -4
17 -15 5 -16 42 -2 42 23 0 7 21 -20 27 -38 7 -47 20 -20 28 11 4 18 11 14 16
-3 6 2 16 11 23 13 10 15 17 8 30 -10 17 -10 17 -17 1 -6 -17 -7 -17 -26 0
-16 15 -20 31 -20 90 0 49 4 74 13 78 14 5 12 187 -2 187 -5 0 -6 -12 -3 -27
2 -16 1 -25 -3 -21 -13 12 -15 318 -2 318 7 0 7 4 -1 12 -8 8 -12 54 -13 133
-2 170 -12 278 -22 242z m-6580 -3327 c150 -8 235 -8 288 -1 89 13 138 13 85
0 -24 -5 -16 -6 25 -2 33 3 193 6 355 7 162 1 277 0 256 -2 -22 -2 -35 -6 -29
-10 6 -4 -87 -7 -207 -8 -121 0 -217 3 -214 8 3 4 -4 8 -15 8 -12 0 -21 -4
-21 -8 0 -11 -663 -10 -671 1 -3 5 -66 4 -140 -2 -74 -5 -163 -6 -199 -2 -54
7 -38 9 100 11 110 1 157 5 140 11 -23 8 -23 8 5 4 17 -3 125 -10 242 -15z
m8367 -155 c4 -10 20 -15 51 -15 26 0 45 -5 45 -11 0 -6 8 -9 18 -7 16 4 17
-5 14 -111 -3 -87 -7 -118 -18 -124 -10 -6 -14 -29 -14 -87 l0 -80 -32 4 c-31
3 -54 26 -26 26 8 0 14 9 14 19 0 14 -4 17 -12 10 -9 -7 -13 5 -19 46 -3 30
-4 59 -1 64 3 5 0 14 -8 20 -10 8 -14 39 -15 104 -2 116 -2 117 -14 117 -6 0
-7 3 -4 7 4 3 2 12 -4 20 -9 10 -8 13 4 13 8 0 17 -7 21 -15z m-672 -21 c3 -2
5 -23 3 -47 -2 -23 -4 -66 -4 -94 -1 -52 -2 -53 -31 -53 -17 0 -33 -7 -40 -17
-9 -17 -11 -16 -29 5 -11 12 -33 25 -50 28 l-31 7 0 87 c0 47 3 90 8 94 7 8
160 -1 174 -10z m-2188 -1047 c-8 -21 15 -74 25 -58 6 9 9 5 9 -13 0 -14 -4
-23 -9 -20 -5 3 -9 0 -9 -5 0 -6 4 -11 8 -11 10 0 9 -30 -2 -48 -4 -6 -3 -12
3 -12 12 0 9 -319 -4 -340 -5 -9 -4 -11 3 -6 16 10 15 -16 0 -33 -10 -11 -10
-13 0 -7 8 5 12 -1 12 -21 -1 -27 -1 -27 -15 -9 -8 11 -15 15 -15 9 0 -6 7
-16 14 -23 13 -10 14 -70 12 -400 -2 -214 -7 -394 -11 -401 -5 -7 -4 -10 1 -6
12 7 17 -133 6 -151 -5 -8 -19 -10 -38 -6 l-30 6 4 64 4 64 -46 0 c-34 0 -46
4 -46 15 0 18 20 20 21 3 0 -10 2 -10 6 0 2 6 11 12 19 12 9 0 13 -5 9 -12 -4
-7 0 -5 8 5 15 18 15 18 20 0 3 -12 5 -9 6 10 1 26 -9 33 -46 28 -7 -1 -14 6
-14 16 -1 17 -2 17 -6 1 -6 -24 -23 -23 -23 2 0 17 6 20 40 18 26 -1 41 -6 43
-17 3 -9 5 -1 6 17 1 32 0 32 -44 32 -40 0 -45 3 -45 22 0 17 3 19 12 10 8 -8
15 -9 25 -1 10 9 13 7 13 -7 1 -18 1 -18 12 1 11 19 11 19 19 0 6 -16 8 -13 8
12 1 25 -3 31 -14 27 -9 -4 -15 0 -15 9 0 21 17 31 23 15 3 -7 6 -1 6 15 1 24
-3 27 -31 28 -18 1 -39 1 -46 0 -8 -1 -12 5 -10 15 4 23 76 26 82 4 2 -8 4 -3
5 11 1 29 -14 39 -60 39 -18 0 -29 5 -29 14 0 8 9 12 25 11 45 -5 65 5 64 34
0 14 -3 20 -6 14 -7 -19 -83 -17 -83 1 0 8 5 18 10 21 6 3 10 2 10 -3 0 -7 33
-8 50 -2 3 1 8 2 13 1 4 0 7 23 7 52 l0 52 -45 -3 c-42 -4 -45 -2 -45 19 1 23
2 23 14 6 11 -14 15 -15 19 -5 5 11 7 11 15 0 7 -11 11 -10 16 4 6 16 8 16 16
4 7 -11 10 -1 10 32 0 37 5 51 20 60 11 7 20 17 20 22 0 6 -5 5 -12 -2 -20
-20 -25 -14 -26 36 -1 87 2 82 -47 82 -38 0 -45 3 -45 20 0 11 5 20 10 20 6 0
10 -5 10 -11 0 -5 4 -8 9 -4 5 3 12 1 16 -4 3 -5 14 -9 25 -8 18 1 20 9 20 98
l0 97 -45 -6 c-41 -4 -45 -3 -45 17 0 25 19 29 21 4 1 -17 2 -17 6 0 2 9 9 17
14 17 5 0 9 -8 9 -17 0 -14 2 -15 9 -4 5 7 14 10 20 7 11 -7 13 26 13 228 0
42 -4 71 -12 76 -8 5 -3 14 17 30 18 14 23 24 16 27 -7 3 -13 8 -13 13 0 14
19 60 24 60 3 0 3 -6 0 -13z m5072 -62 c-1 -31 2 -57 8 -59 7 -3 6 -8 -2 -14
-7 -5 -10 -16 -6 -26 6 -15 3 -17 -14 -11 -14 4 -22 2 -22 -5 0 -7 9 -14 20
-17 22 -6 22 -8 22 -108 0 -97 1 -94 -24 -89 -17 4 -15 1 7 -9 29 -14 29 -15
5 -14 -28 1 -75 27 -50 27 11 1 10 4 -4 15 -10 8 -23 12 -27 9 -5 -3 -9 1 -9
9 0 10 7 13 20 10 11 -3 20 0 20 6 0 6 -6 11 -14 11 -8 0 -22 3 -32 7 -14 5
-16 2 -11 -18 3 -13 1 -33 -3 -44 -7 -15 -9 -9 -9 25 -1 29 -4 40 -10 31 -5
-7 -7 -27 -6 -45 2 -25 7 -32 29 -34 22 -3 26 -8 26 -33 0 -26 -4 -30 -22 -28
-13 2 -29 0 -35 -4 -13 -8 -14 -6 -17 46 -1 15 -11 34 -23 42 -15 10 -20 24
-18 47 1 18 7 34 14 36 6 2 9 8 6 12 -3 5 -1 11 5 15 5 3 10 1 10 -6 0 -8 4
-8 15 1 8 7 15 9 15 4 0 -13 24 15 26 31 3 21 -9 19 -24 -6 -10 -15 -16 -18
-26 -10 -8 6 -20 9 -29 5 -8 -3 -18 -1 -22 5 -3 6 -15 11 -26 11 -16 0 -19 7
-19 40 0 22 4 40 8 40 18 0 7 36 -12 38 -26 2 -40 17 -32 37 4 11 12 15 22 11
9 -3 24 -6 35 -6 16 0 19 -7 19 -55 0 -42 -3 -55 -15 -55 -8 0 -15 -4 -15 -9
0 -4 11 -6 25 -3 26 4 27 8 29 77 1 39 2 40 38 43 28 2 37 -1 41 -15 2 -10 3
-5 3 11 -1 36 14 42 45 17 23 -18 23 -20 6 -39 -29 -31 0 -40 31 -9 23 24 24
27 8 42 -21 22 -21 52 2 58 9 3 18 5 19 6 0 0 0 -24 -1 -54z m440 -340 c6 -44
17 -57 27 -32 4 7 6 6 6 -4 1 -9 -9 -19 -20 -22 -14 -4 -20 -11 -16 -21 7 -17
-18 -29 -44 -21 -24 8 -26 -26 -4 -49 22 -22 19 -24 -25 -16 -47 9 -53 -3 -10
-19 20 -7 30 -17 30 -30 0 -12 -4 -21 -9 -21 -5 0 -12 -16 -15 -35 -7 -37 -26
-48 -26 -15 0 11 -4 20 -10 20 -5 0 -10 7 -10 16 0 8 5 12 11 8 8 -5 8 -1 0
14 -21 40 -10 118 18 125 11 3 9 5 -6 6 -16 1 -23 7 -23 21 0 11 6 19 13 18 8
-2 11 8 9 30 -2 18 1 32 7 32 14 0 14 -77 1 -83 -6 -3 -5 -4 2 -3 7 1 17 22
22 47 7 39 9 41 17 21 5 -12 5 -32 0 -46 -9 -21 -7 -22 16 -18 25 5 25 7 19
63 -7 69 10 81 20 14z m-1883 -128 c2 -7 2 -115 0 -241 l-5 -229 37 7 c33 6
37 5 31 -9 -3 -9 -6 -28 -6 -41 0 -19 -5 -24 -24 -24 -58 0 -56 -11 -56 281 0
239 6 301 23 256z m-11153 -748 c0 -5 -5 -7 -10 -4 -6 3 -26 1 -45 -6 -32 -12
-35 -17 -35 -51 0 -41 9 -46 54 -28 20 7 26 17 27 42 1 25 3 28 6 9 9 -44 -4
-68 -42 -75 -38 -7 -53 -22 -37 -38 7 -7 20 -6 41 5 16 8 32 12 35 9 16 -15 2
-29 -39 -40 -27 -7 -45 -18 -45 -27 0 -12 -28 -35 -44 -35 -3 0 -6 49 -6 109
l0 108 53 15 c64 19 87 21 87 7z m12509 -146 c1 -56 -3 -93 -9 -93 -5 0 -10
-11 -10 -24 0 -13 -7 -30 -16 -37 -14 -12 -14 -14 3 -20 10 -4 -30 -7 -89 -8
-59 -1 -115 -4 -124 -8 -12 -4 -15 -3 -10 5 4 7 18 12 32 12 15 0 24 6 24 15
0 8 9 20 20 27 23 15 27 38 5 38 -11 0 -15 11 -15 40 0 36 -2 40 -25 40 -22 0
-25 4 -25 39 0 35 -3 40 -26 43 -23 3 -24 5 -11 23 13 16 17 17 31 6 11 -9 16
-10 16 -2 0 6 5 11 11 11 7 0 9 -12 5 -35 -6 -31 -4 -35 14 -35 14 0 20 7 20
21 0 11 4 18 9 14 5 -3 11 5 14 17 2 13 2 1 0 -27 -2 -27 0 -70 5 -95 l8 -45
8 33 c11 45 26 40 26 -8 0 -51 20 -53 21 -2 0 20 4 46 9 57 7 18 8 19 15 3 14
-34 22 -18 19 37 -3 52 9 76 19 38 3 -10 6 2 7 27 2 42 3 43 10 15 4 -16 8
-72 9 -122z m-10171 -637 c-1 -14 -6 -22 -10 -20 -4 3 -8 0 -8 -7 0 -7 -3 -9
-6 -6 -4 4 -1 14 7 23 13 16 12 16 -18 0 -18 -9 -33 -23 -33 -30 0 -8 -7 -17
-16 -20 -14 -5 -15 -4 -4 9 10 12 10 15 -2 15 -19 0 -38 -20 -32 -34 2 -6 -34
-29 -82 -51 -111 -51 -105 -50 -97 -29 4 12 3 15 -5 10 -7 -4 -12 -13 -12 -21
0 -17 -30 -28 -45 -15 -6 5 -15 6 -19 2 -4 -4 -12 -8 -17 -8 -5 -1 -13 -2 -19
-3 -5 0 -10 -10 -10 -20 0 -11 -4 -23 -10 -26 -6 -3 -10 5 -10 19 0 27 -1 26
230 132 47 21 112 53 145 70 75 39 75 39 73 10z m1 -128 c0 -13 -3 -18 -5 -11
-3 7 -13 9 -22 6 -24 -9 -52 -34 -47 -43 2 -4 -8 -5 -23 -3 -21 4 -24 2 -12
-6 13 -9 13 -11 -2 -11 -10 0 -18 -4 -18 -8 0 -8 -32 -25 -128 -69 -29 -13
-51 -19 -47 -13 3 5 1 10 -4 10 -6 0 -11 -8 -11 -17 0 -15 -2 -16 -10 -3 -8
13 -10 13 -10 -1 0 -9 -7 -19 -15 -23 -18 -7 -20 10 -2 18 6 3 3 5 -8 3 -12
-1 -21 -11 -23 -25 -4 -24 -17 -29 -28 -10 -5 7 -11 3 -17 -13 l-10 -24 -5 23
c-2 13 -2 25 0 27 6 6 433 214 441 214 4 1 7 -9 6 -21z m1 -129 c0 -17 -5 -20
-21 -16 -13 3 -28 -2 -40 -14 -10 -10 -24 -20 -31 -21 -7 -2 -23 -14 -37 -27
-16 -16 -26 -20 -29 -12 -3 8 -9 5 -18 -8 -8 -10 -31 -25 -51 -32 -21 -6 -44
-18 -52 -26 -11 -12 -15 -12 -22 -2 -6 10 -9 10 -15 -4 -3 -9 -10 -14 -15 -11
-5 3 -9 0 -9 -7 0 -7 -3 -9 -7 -6 -3 4 -17 0 -29 -8 -17 -11 -24 -12 -27 -2
-3 7 -6 4 -6 -6 -1 -10 -5 -15 -11 -12 -5 3 -10 -1 -10 -9 0 -8 -4 -18 -10
-21 -6 -4 -10 6 -10 22 0 28 9 36 70 63 14 6 99 48 190 95 91 46 171 84 178
85 6 0 12 -10 12 -21z m0 -124 c0 -17 -5 -25 -18 -25 -10 0 -22 -4 -27 -9 -10
-8 -115 -65 -253 -137 -36 -19 -68 -32 -72 -29 -5 3 -10 2 -12 -2 -1 -5 -18
-18 -35 -31 l-33 -23 0 30 c0 22 6 31 28 40 15 5 113 55 217 110 105 54 193
100 198 100 4 1 7 -10 7 -24z m-1702 -3108 c6 -5 12 -24 12 -41 0 -24 -3 -27
-10 -16 -5 8 -7 23 -4 33 3 11 0 17 -10 17 -22 0 -26 -12 -28 -80 -1 -43 -4
-56 -11 -45 -5 9 -7 32 -5 51 4 36 -1 41 -20 22 -9 -9 -12 -73 -12 -227 0
-118 -3 -212 -6 -209 -3 3 -6 97 -7 208 0 110 -4 203 -9 206 -4 3 -9 -1 -10
-8 0 -7 -2 -17 -2 -23 -1 -5 -4 -15 -8 -20 -10 -16 -7 -305 3 -311 5 -3 6 -11
2 -17 -4 -7 -9 -27 -10 -46 -2 -34 -9 -48 -18 -39 -3 3 -6 99 -5 213 0 161 -3
206 -12 203 -7 -3 -13 -20 -13 -39 0 -19 -3 -38 -7 -44 -3 -5 -6 -90 -5 -188
0 -125 -3 -181 -12 -190 -9 -9 -11 43 -11 227 l1 238 55 51 c30 28 64 57 76
66 20 13 21 13 15 -3 -5 -13 -3 -17 11 -14 9 2 17 11 16 19 -1 18 25 21 44 6z
m3111 -2417 c1 -437 -2 -650 -9 -650 -7 0 -10 212 -10 643 0 554 2 657 15 657
1 0 3 -292 4 -650z"/>
<path d="M11626 14194 c-4 -9 0 -27 9 -40 13 -21 13 -24 -3 -36 -10 -7 -21
-27 -25 -44 l-6 -31 47 8 c50 7 86 -6 60 -22 -20 -13 -148 -11 -148 2 0 6 -9
9 -19 6 -14 -3 -18 -1 -14 10 4 10 14 13 34 9 22 -4 27 -2 22 9 -3 8 0 15 6
15 6 0 11 3 11 8 0 4 -18 6 -40 4 -36 -4 -42 -8 -47 -33 -5 -27 -23 -41 -23
-19 0 13 -61 13 -94 1 -13 -6 -48 -11 -78 -12 -94 -2 -252 -20 -291 -31 -30
-9 -37 -16 -35 -32 3 -19 12 -22 93 -28 50 -4 126 -5 170 -4 44 2 68 1 53 -1
-16 -2 -28 -9 -28 -14 0 -6 63 -8 168 -4 150 5 172 3 221 -15 49 -18 64 -18
155 -9 56 6 120 8 142 4 27 -4 56 0 85 10 24 9 64 21 88 27 37 9 45 8 53 -6 6
-11 17 -14 37 -10 15 3 75 -3 132 -15 57 -11 131 -20 164 -19 71 2 145 -25
145 -52 0 -15 14 -17 155 -17 85 0 155 1 155 3 0 2 -21 9 -46 15 -45 12 -46
12 -23 25 22 12 23 13 4 15 -11 1 -25 3 -32 3 -6 1 -21 10 -32 20 -27 24 -13
36 44 36 78 1 79 25 3 49 -25 9 -38 19 -38 31 0 19 -40 32 -95 32 -34 0 -45
12 -45 47 0 20 -4 23 -27 17 -73 -16 -96 -18 -116 -8 -27 13 -99 24 -93 14 2
-4 -19 -5 -46 -3 -37 2 -48 0 -43 -9 5 -8 -3 -9 -32 -3 -21 4 -50 6 -65 5
-114 -11 -316 17 -355 49 -12 10 -16 10 -23 -1 -7 -11 -11 -8 -19 13 -12 31
-23 34 -42 11 -12 -15 -24 -15 -99 2 -14 3 -43 8 -65 11 -22 3 -45 10 -51 15
-8 5 -14 3 -18 -8z"/>
<path d="M19255 8130 c-3 -6 -4 -18 -1 -28 5 -15 24 -17 203 -17 192 0 198 1
195 20 -2 11 -5 21 -5 21 -1 1 -88 4 -194 8 -128 4 -194 3 -198 -4z"/>
</g>
</svg>
