<?xml version="1.0" encoding="utf-8"?>
<!-- Generator: Adobe Illustrator 16.0.0, SVG Export Plug-In . SVG Version: 6.00 Build 0)  -->
<!DOCTYPE svg PUBLIC "-//W3C//DTD SVG 1.1//EN" "http://www.w3.org/Graphics/SVG/1.1/DTD/svg11.dtd">
<svg version="1.1" id="Calque_1" focusable="false" xmlns="http://www.w3.org/2000/svg" xmlns:xlink="http://www.w3.org/1999/xlink"
	 x="0px" y="0px" width="1642.68px" height="16382.84px" viewBox="0 0 1642.68 16382.84"
	 enable-background="new 0 0 1642.68 16382.84" xml:space="preserve">
<path fill="none" stroke="#FFFFFF" stroke-miterlimit="10" d="M821.34,8191.419c259.235,0,469.337-210.101,469.337-469.337
	c0-259.234-210.102-469.338-469.337-469.338s-469.337,210.104-469.337,469.338C352.003,7981.318,562.104,8191.419,821.34,8191.419z
	 M1149.876,8308.754h-61.234c-81.4,37.4-171.968,58.666-267.302,58.666s-185.535-21.266-267.302-58.666h-61.234
	C220.735,8308.754,0,8529.488,0,8801.557v152.535c0,97.168,78.834,176.002,176.001,176.002h1290.677
	c97.167,0,176.001-78.834,176.001-176.002v-152.535C1642.68,8529.488,1421.944,8308.754,1149.876,8308.754z"/>
</svg>
